<?xml version="1.0" encoding="UTF-8"?>
<!--
  BOOMFLOW Custom Skin: Demo Ocean
  Generated with: generate-custom-skin.js
  Shape: Hexagon
  Palette: 🌊 Ocean
  Effect: Glow
  Icon: 💎 Gem
-->
<svg xmlns="http://www.w3.org/2000/svg" viewBox="0 0 120 140">
  <defs>
    <!-- Background gradient -->
    <linearGradient id="bg-gradient" x1="0%" y1="0%" x2="100%" y2="100%">
      <stop offset="0%" style="stop-color:#0c4a6e"/>
      <stop offset="100%" style="stop-color:#00365a"/>
    </linearGradient>
    
    <filter id="glow" x="-50%" y="-50%" width="200%" height="200%">
      <feGaussianBlur stdDeviation="3" result="blur"/>
      <feFlood flood-color="#7dd3fc" result="color"/>
      <feComposite in="color" in2="blur" operator="in" result="glow"/>
      <feMerge>
        <feMergeNode in="glow"/>
        <feMergeNode in="glow"/>
        <feMergeNode in="SourceGraphic"/>
      </feMerge>
    </filter>
  </defs>
  
  <!-- Main group filter="url(#glow)" -->
  <g filter="url(#glow)">

  <!-- Shape: Hexagon (Gem) -->
  <polygon points="60,5 105,30 105,100 60,125 15,100 15,30" 
           fill="#0c4a6e" 
           stroke="#0ea5e9" 
           stroke-width="3"/>
  <polygon points="60,15 95,35 95,95 60,115 25,95 25,35" 
           fill="none" 
           stroke="#7dd3fc" 
           stroke-width="1" 
           opacity="0.4"/>
  </g>
  

  <!-- Icon: Faceted gem -->
  <g transform="translate(60, 65)">
    <polygon points="0,-18 14,-6 0,18 -14,-6" fill="#e0f2fe" opacity="0.9"/>
    <polygon points="0,-18 14,-6 0,2 -14,-6" fill="#e0f2fe"/>
    <polygon points="-14,-6 0,2 0,18" fill="#e0f2fe" opacity="0.6"/>
    <polygon points="14,-6 0,2 0,18" fill="#e0f2fe" opacity="0.8"/>
    <line x1="0" y1="-18" x2="0" y2="18" stroke="#7dd3fc" stroke-width="0.5" opacity="0.5"/>
  </g>
  
  <!-- Bottom text -->
  <text x="60" y="130" font-size="8" fill="#bae6fd" text-anchor="middle" 
        font-family="system-ui, -apple-system, sans-serif" font-weight="600">DEMO</text>
</svg>